Printline-Bold.ufo
<glyph name="dollar" format="2">
  <advance width="392"/>
  <unicode hex="0024"/>
  <anchor x="196" y="700" name="top"/>
  <outline>
    <contour>
      <point x="149" y="-81" type="line"/>
      <point x="246" y="-81" type="line"/>
      <point x="246" y="52" type="line"/>
      <point x="149" y="52" type="line"/>
    </contour>
    <contour>
      <point x="149" y="656" type="line"/>
      <point x="246" y="656" type="line"/>
      <point x="246" y="789" type="line"/>
      <point x="149" y="789" type="line"/>
    </contour>
    <contour>
      <point x="203" y="-15" type="qcurve" smooth="yes"/>
      <point x="280" y="-15"/>
      <point x="362" y="91"/>
      <point x="362" y="162.771" type="qcurve" smooth="yes"/>
      <point x="362" y="284.707"/>
      <point x="237.331" y="385.298" type="qcurve" smooth="yes"/>
      <point x="129" y="472.707"/>
      <point x="129" y="563.522" type="qcurve" smooth="yes"/>
      <point x="129" y="601"/>
      <point x="163.737" y="646"/>
      <point x="190.534" y="646" type="qcurve" smooth="yes"/>
      <point x="221.301" y="646"/>
      <point x="261" y="588"/>
      <point x="261" y="484" type="qcurve"/>
      <point x="347" y="484" type="line"/>
      <point x="347" y="591"/>
      <point x="277" y="715"/>
      <point x="199" y="715" type="qcurve" smooth="yes"/>
      <point x="132" y="715"/>
      <point x="43" y="620"/>
      <point x="43" y="550.051" type="qcurve" smooth="yes"/>
      <point x="43" y="434.539"/>
      <point x="170.196" y="323.308" type="qcurve" smooth="yes"/>
      <point x="276" y="230.783"/>
      <point x="276" y="151.987" type="qcurve" smooth="yes"/>
      <point x="276" y="117"/>
      <point x="237.761" y="54"/>
      <point x="201.535" y="54" type="qcurve" smooth="yes"/>
      <point x="160.277" y="54"/>
      <point x="116" y="146"/>
      <point x="116" y="251" type="qcurve"/>
      <point x="30" y="251" type="line"/>
      <point x="30" y="122"/>
      <point x="118" y="-15"/>
    </contour>
  </outline>
</glyph>
<glyph name="percent" format="2">
  <advance width="688"/>
  <unicode hex="0025"/>
  <outline>
    <contour>
      <point x="519" y="-15" type="qcurve" smooth="yes"/>
      <point x="583" y="-15"/>
      <point x="648" y="112"/>
      <point x="648" y="210" type="qcurve" smooth="yes"/>
      <point x="648" y="308"/>
      <point x="583" y="435"/>
      <point x="519" y="435" type="qcurve" smooth="yes"/>
      <point x="454" y="435"/>
      <point x="389" y="308"/>
      <point x="389" y="210" type="qcurve" smooth="yes"/>
      <point x="389" y="112"/>
      <point x="454" y="-15"/>
    </contour>
    <contour>
      <point x="519" y="64" type="qcurve" smooth="yes"/>
      <point x="498" y="64"/>
      <point x="481" y="149"/>
      <point x="481" y="210" type="qcurve" smooth="yes"/>
      <point x="481" y="271"/>
      <point x="498" y="356"/>
      <point x="519" y="356" type="qcurve" smooth="yes"/>
      <point x="540" y="356"/>
      <point x="556" y="272"/>
      <point x="556" y="210" type="qcurve" smooth="yes"/>
      <point x="556" y="148"/>
      <point x="540" y="64"/>
    </contour>
    <contour>
      <point x="170" y="305" type="qcurve" smooth="yes"/>
      <point x="234" y="305"/>
      <point x="299" y="432"/>
      <point x="299" y="530" type="qcurve" smooth="yes"/>
      <point x="299" y="628"/>
      <point x="234" y="755"/>
      <point x="170" y="755" type="qcurve" smooth="yes"/>
      <point x="105" y="755"/>
      <point x="40" y="628"/>
      <point x="40" y="530" type="qcurve" smooth="yes"/>
      <point x="40" y="432"/>
      <point x="105" y="305"/>
    </contour>
    <contour>
      <point x="170" y="384" type="qcurve" smooth="yes"/>
      <point x="149" y="384"/>
      <point x="132" y="469"/>
      <point x="132" y="530" type="qcurve" smooth="yes"/>
      <point x="132" y="591"/>
      <point x="149" y="676"/>
      <point x="170" y="676" type="qcurve" smooth="yes"/>
      <point x="191" y="676"/>
      <point x="207" y="592"/>
      <point x="207" y="530" type="qcurve" smooth="yes"/>
      <point x="207" y="468"/>
      <point x="191" y="384"/>
    </contour>
    <contour>
      <point x="186" y="-15" type="line"/>
      <point x="272" y="-15" type="line"/>
      <point x="502" y="750" type="line"/>
      <point x="415" y="750" type="line"/>
    </contour>
  </outline>
</glyph>
<glyph name="parenright" format="2">
  <advance width="230"/>
  <unicode hex="0029"/>
  <outline>
    <contour>
      <point x="82" y="-50" type="qcurve"/>
      <point x="30" y="-50" type="line"/>
      <point x="114" y="105.805"/>
      <point x="114" y="335.962" type="qcurve" smooth="yes"/>
      <point x="114" y="563.566"/>
      <point x="30" y="750" type="qcurve"/>
      <point x="82" y="750" type="line"/>
      <point x="200" y="545.599"/>
      <point x="200" y="345.45" type="qcurve" smooth="yes"/>
      <point x="200" y="147.035"/>
    </contour>
  </outline>
</glyph>
<glyph name="plus" format="2">
  <advance width="349"/>
  <unicode hex="002B"/>
  <outline>
    <contour>
      <point x="131" y="137" type="line"/>
      <point x="217" y="137" type="line"/>
      <point x="217" y="267" type="line"/>
      <point x="349" y="267" type="line"/>
      <point x="349" y="353" type="line"/>
      <point x="217" y="353" type="line"/>
      <point x="217" y="483" type="line"/>
      <point x="131" y="483" type="line"/>
      <point x="131" y="353" type="line"/>
      <point x="0" y="353" type="line"/>
      <point x="0" y="267" type="line"/>
      <point x="131" y="267" type="line"/>
    </contour>
  </outline>
</glyph>
<glyph name="two" format="2">
  <advance width="343"/>
  <unicode hex="0032"/>
  <outline>
    <contour>
      <point x="127" y="87" type="line"/>
      <point x="323" y="315.667"/>
      <point x="323" y="507.182" type="qcurve" smooth="yes"/>
      <point x="323" y="595"/>
      <point x="242" y="715"/>
      <point x="171" y="715" type="qcurve" smooth="yes"/>
      <point x="97" y="715"/>
      <point x="20" y="591"/>
      <point x="20" y="484" type="qcurve"/>
      <point x="102" y="484" type="line"/>
      <point x="102" y="639"/>
      <point x="171" y="639" type="qcurve" smooth="yes"/>
      <point x="203" y="639"/>
      <point x="241" y="566"/>
      <point x="241" y="512.675" type="qcurve" smooth="yes"/>
      <point x="241" y="325.68"/>
      <point x="20" y="87" type="qcurve"/>
      <point x="20" y="5" type="line"/>
      <point x="323" y="5" type="line"/>
      <point x="323" y="87" type="line"/>
    </contour>
  </outline>
</glyph>
<glyph name="five" format="2">
  <advance width="341"/>
  <unicode hex="0035"/>
  <outline>
    <contour>
      <point x="30" y="305" type="line"/>
      <point x="113" y="305" type="line"/>
      <point x="116.682" y="386"/>
      <point x="166.241" y="386" type="qcurve" smooth="yes"/>
      <point x="235" y="386"/>
      <point x="235" y="223.112" type="qcurve" smooth="yes"/>
      <point x="235" y="63"/>
      <point x="166.543" y="63" type="qcurve" smooth="yes"/>
      <point x="103" y="63"/>
      <point x="103" y="191" type="qcurve"/>
      <point x="20" y="191" type="line"/>
      <point x="20" y="-15"/>
      <point x="164.548" y="-15" type="qcurve" smooth="yes"/>
      <point x="246.415" y="-15"/>
      <point x="321" y="120"/>
      <point x="321" y="233.508" type="qcurve" smooth="yes"/>
      <point x="321" y="332.273"/>
      <point x="266.445" y="455"/>
      <point x="192.673" y="455" type="qcurve" smooth="yes"/>
      <point x="137.56" y="455"/>
      <point x="104" y="419" type="qcurve"/>
      <point x="103.895" y="614" type="line"/>
      <point x="300" y="614" type="line"/>
      <point x="300" y="700" type="line"/>
      <point x="30" y="700" type="line"/>
    </contour>
  </outline>
</glyph>
<glyph name="six" format="2">
  <advance width="353"/>
  <unicode hex="0036"/>
  <outline>
    <contour>
      <point x="181.836" y="-15" type="qcurve" smooth="yes"/>
      <point x="333" y="-15"/>
      <point x="333" y="230" type="qcurve" smooth="yes"/>
      <point x="333" y="337"/>
      <point x="247" y="451"/>
      <point x="192.557" y="451" type="qcurve" smooth="yes"/>
      <point x="133" y="451"/>
      <point x="106" y="380" type="qcurve"/>
      <point x="106" y="483.695"/>
      <point x="133.698" y="646"/>
      <point x="175.759" y="646" type="qcurve" smooth="yes"/>
      <point x="225" y="646"/>
      <point x="225" y="524" type="qcurve"/>
      <point x="311" y="524" type="line"/>
      <point x="311" y="715"/>
      <point x="179.707" y="715" type="qcurve" smooth="yes"/>
      <point x="20" y="715"/>
      <point x="20" y="352" type="qcurve" smooth="yes"/>
      <point x="20" y="-15"/>
    </contour>
    <contour>
      <point x="179.045" y="64" type="qcurve" smooth="yes"/>
      <point x="142.455" y="64"/>
      <point x="109" y="161.368"/>
      <point x="109" y="227.661" type="qcurve" smooth="yes"/>
      <point x="109" y="294.99"/>
      <point x="144.545" y="382"/>
      <point x="175.909" y="382" type="qcurve" smooth="yes"/>
      <point x="208.318" y="382"/>
      <point x="247" y="294.99"/>
      <point x="247" y="227.661" type="qcurve" smooth="yes"/>
      <point x="247" y="162.404"/>
      <point x="213.545" y="64"/>
    </contour>
  </outline>
</glyph>
<glyph name="colon" format="2">
  <advance width="160"/>
  <unicode hex="003A"/>
  <outline>
    <contour>
      <point x="80.463" y="0" type="qcurve" smooth="yes"/>
      <point x="100.087" y="0"/>
      <point x="130" y="27"/>
      <point x="130" y="64" type="qcurve" smooth="yes"/>
      <point x="130" y="101"/>
      <point x="100.087" y="127"/>
      <point x="80.463" y="127" type="qcurve" smooth="yes"/>
      <point x="60.8385" y="127"/>
      <point x="30" y="101"/>
      <point x="30" y="64" type="qcurve" smooth="yes"/>
      <point x="30" y="27"/>
      <point x="60.8385" y="0"/>
    </contour>
    <contour>
      <point x="80.463" y="323" type="qcurve" smooth="yes"/>
      <point x="100.087" y="323"/>
      <point x="130" y="350"/>
      <point x="130" y="387" type="qcurve" smooth="yes"/>
      <point x="130" y="424"/>
      <point x="100.087" y="450"/>
      <point x="80.463" y="450" type="qcurve" smooth="yes"/>
      <point x="60.8385" y="450"/>
      <point x="30" y="424"/>
      <point x="30" y="387" type="qcurve" smooth="yes"/>
      <point x="30" y="350"/>
      <point x="60.8385" y="323"/>
    </contour>
  </outline>
</glyph>
<glyph name="question" format="2">
  <advance width="343"/>
  <unicode hex="003F"/>
  <outline>
    <contour>
      <point x="188" y="203" type="line"/>
      <point x="188" y="251"/>
      <point x="218.45" y="319"/>
      <point x="245.345" y="354.878" type="qcurve" smooth="yes"/>
      <point x="280.238" y="401"/>
      <point x="313" y="491.007"/>
      <point x="313" y="545.362" type="qcurve" smooth="yes"/>
      <point x="313" y="624.882"/>
      <point x="245.429" y="712"/>
      <point x="176.164" y="712" type="qcurve" smooth="yes"/>
      <point x="95" y="712"/>
      <point x="30" y="597.704"/>
      <point x="30" y="490" type="qcurve"/>
      <point x="116" y="490" type="line"/>
      <point x="116" y="556.434"/>
      <point x="134.74" y="643"/>
      <point x="174.192" y="643" type="qcurve" smooth="yes"/>
      <point x="206.1" y="643"/>
      <point x="227" y="583.612"/>
      <point x="227" y="548.382" type="qcurve" smooth="yes"/>
      <point x="227" y="465"/>
      <point x="163.855" y="374.998" type="qcurve" smooth="yes"/>
      <point x="138.685" y="339"/>
      <point x="102" y="261"/>
      <point x="102" y="203" type="qcurve"/>
    </contour>
    <contour>
      <point x="139.463" y="-4" type="qcurve" smooth="yes"/>
      <point x="159.087" y="-4"/>
      <point x="189" y="23"/>
      <point x="189" y="60" type="qcurve" smooth="yes"/>
      <point x="189" y="97"/>
      <point x="159.087" y="123"/>
      <point x="139.463" y="123" type="qcurve" smooth="yes"/>
      <point x="119.838" y="123"/>
      <point x="89" y="97"/>
      <point x="89" y="60" type="qcurve" smooth="yes"/>
      <point x="89" y="23"/>
      <point x="119.838" y="-4"/>
    </contour>
  </outline>
  <guideline angle="0" x="0" y="811"/>
  <guideline angle="0" x="0" y="811"/>
</glyph>
<glyph name="at" format="2">
  <advance width="590"/>
  <unicode hex="0040"/>
  <outline>
    <contour>
      <point x="434" y="0" type="qcurve"/>
      <point x="350" y="0" type="line"/>
      <point x="350" y="44" type="line"/>
      <point x="323.406" y="-6"/>
      <point x="268.031" y="-6" type="qcurve" smooth="yes"/>
      <point x="141" y="-6"/>
      <point x="141" y="250.043" type="qcurve" smooth="yes"/>
      <point x="141" y="506"/>
      <point x="270.545" y="506" type="qcurve" smooth="yes"/>
      <point x="335.211" y="506"/>
      <point x="350" y="437.986" type="qcurve"/>
      <point x="363" y="500.086" type="line"/>
      <point x="434" y="500.086" type="line"/>
      <point x="434" y="72.0162" type="line"/>
      <point x="507" y="72.0162"/>
      <point x="507" y="256.379" type="qcurve" smooth="yes"/>
      <point x="507" y="585"/>
      <point x="294.251" y="585" type="qcurve" smooth="yes"/>
      <point x="83" y="585"/>
      <point x="83" y="233.681" type="qcurve" smooth="yes"/>
      <point x="83" y="-88"/>
      <point x="302.748" y="-88" type="qcurve"/>
      <point x="302.748" y="-160" type="line"/>
      <point x="0" y="-160"/>
      <point x="0" y="218.728" type="qcurve" smooth="yes"/>
      <point x="0" y="657"/>
      <point x="301.023" y="657" type="qcurve" smooth="yes"/>
      <point x="590" y="657"/>
      <point x="590" y="276.062" type="qcurve" smooth="yes"/>
      <point x="590" y="0"/>
    </contour>
    <contour>
      <point x="293.733" y="437" type="qcurve" smooth="yes"/>
      <point x="227" y="437"/>
      <point x="227" y="253.381" type="qcurve" smooth="yes"/>
      <point x="227" y="66"/>
      <point x="295.047" y="66" type="qcurve" smooth="yes"/>
      <point x="348" y="66"/>
      <point x="348" y="172.286" type="qcurve"/>
      <point x="348" y="325.7" type="line"/>
      <point x="348" y="437"/>
    </contour>
  </outline>
</glyph>
<glyph name="E" format="2">
  <advance width="302"/>
  <unicode hex="0045"/>
  <anchor x="168.5" y="700" name="top"/>
  <anchor x="229" y="0" name="ogonek"/>
  <anchor x="175.5" y="0" name="ced"/>
  <outline>
    <contour>
      <point x="40" y="0" type="line"/>
      <point x="297" y="0" type="line"/>
      <point x="297" y="69" type="line"/>
      <point x="126" y="69" type="line"/>
      <point x="126" y="312" type="line"/>
      <point x="250" y="312" type="line"/>
      <point x="250" y="381" type="line"/>
      <point x="126" y="381" type="line"/>
      <point x="126" y="631" type="line"/>
      <point x="290" y="631" type="line"/>
      <point x="290" y="700" type="line"/>
      <point x="40" y="700" type="line"/>
    </contour>
  </outline>
</glyph>
<glyph name="F" format="2">
  <advance width="297"/>
  <unicode hex="0046"/>
  <outline>
    <contour>
      <point x="40" y="0" type="line"/>
      <point x="126" y="0" type="line"/>
      <point x="126" y="312" type="line"/>
      <point x="242" y="312" type="line"/>
      <point x="242" y="381" type="line"/>
      <point x="126" y="381" type="line"/>
      <point x="126" y="631" type="line"/>
      <point x="292" y="631" type="line"/>
      <point x="292" y="700" type="line"/>
      <point x="40" y="700" type="line"/>
    </contour>
  </outline>
</glyph>
<glyph name="G" format="2">
  <advance width="358"/>
  <unicode hex="0047"/>
  <anchor x="179" y="700" name="top"/>
  <outline>
    <contour>
      <point x="181" y="-15" type="qcurve" smooth="yes"/>
      <point x="255.806" y="-15"/>
      <point x="282" y="79" type="qcurve"/>
      <point x="290" y="0" type="line"/>
      <point x="338" y="0" type="line"/>
      <point x="338" y="372" type="line"/>
      <point x="169" y="372" type="line"/>
      <point x="169" y="303" type="line"/>
      <point x="252" y="303" type="line"/>
      <point x="252" y="156.232"/>
      <point x="213" y="54"/>
      <point x="184" y="54" type="qcurve" smooth="yes"/>
      <point x="142" y="54"/>
      <point x="106" y="236"/>
      <point x="106" y="367.13" type="qcurve" smooth="yes"/>
      <point x="106" y="503"/>
      <point x="144" y="652"/>
      <point x="184" y="652" type="qcurve" smooth="yes"/>
      <point x="218" y="652"/>
      <point x="245" y="539"/>
      <point x="245" y="430" type="qcurve"/>
      <point x="331" y="430" type="line"/>
      <point x="331" y="571"/>
      <point x="262.944" y="721"/>
      <point x="179" y="721" type="qcurve" smooth="yes"/>
      <point x="87.5985" y="721"/>
      <point x="20" y="532"/>
      <point x="20" y="362.316" type="qcurve" smooth="yes"/>
      <point x="20" y="177"/>
      <point x="102.582" y="-15"/>
    </contour>
  </outline>
</glyph>
<glyph name="H" format="2">
  <advance width="367"/>
  <unicode hex="0048"/>
  <outline>
    <contour>
      <point x="241" y="0" type="line"/>
      <point x="327" y="0" type="line"/>
      <point x="327" y="700" type="line"/>
      <point x="241" y="700" type="line"/>
      <point x="241" y="381" type="line"/>
      <point x="126" y="381" type="line"/>
      <point x="126" y="700" type="line"/>
      <point x="40" y="700" type="line"/>
      <point x="40" y="0" type="line"/>
      <point x="126" y="0" type="line"/>
      <point x="126" y="312" type="line"/>
      <point x="241" y="312" type="line"/>
    </contour>
  </outline>
</glyph>
<glyph name="L" format="2">
  <advance width="276"/>
  <unicode hex="004C"/>
  <anchor x="83" y="700" name="top"/>
  <outline>
    <contour>
      <point x="40" y="0" type="line"/>
      <point x="271" y="0" type="line"/>
      <point x="271" y="69" type="line"/>
      <point x="126" y="69" type="line"/>
      <point x="126" y="700" type="line"/>
      <point x="40" y="700" type="line"/>
    </contour>
  </outline>
</glyph>
<glyph name="M" format="2">
  <advance width="483"/>
  <unicode hex="004D"/>
  <outline>
    <contour>
      <point x="356" y="0.35" type="line"/>
      <point x="442.4" y="0.35" type="line"/>
      <point x="442.4" y="700" type="line"/>
      <point x="310" y="700" type="line"/>
      <point x="240" y="69" type="line"/>
      <point x="169" y="700" type="line"/>
      <point x="40.45" y="700" type="line"/>
      <point x="40.45" y="0.349976" type="line"/>
      <point x="126.8" y="0.349976" type="line"/>
      <point x="126.8" y="532" type="line"/>
      <point x="179" y="0" type="line"/>
      <point x="301" y="0" type="line"/>
      <point x="356" y="552.632" type="line"/>
    </contour>
  </outline>
</glyph>
<glyph name="R" format="2">
  <advance width="360"/>
  <unicode hex="0052"/>
  <anchor x="156.481" y="700" name="top"/>
  <outline>
    <contour>
      <point x="40" y="0" type="line"/>
      <point x="126" y="0" type="line"/>
      <point x="126" y="312" type="line"/>
      <point x="236" y="312"/>
      <point x="236" y="107.763" type="qcurve"/>
      <point x="236" y="0"/>
      <point x="261.211" y="0" type="qcurve"/>
      <point x="340" y="0" type="line"/>
      <point x="340" y="30" type="line"/>
      <point x="317.957" y="29.8371"/>
      <point x="322" y="172" type="qcurve" smooth="yes"/>
      <point x="325.875" y="308.254"/>
      <point x="236" y="335" type="qcurve"/>
      <point x="331" y="362.109"/>
      <point x="331" y="512.168" type="qcurve" smooth="yes"/>
      <point x="331" y="700"/>
      <point x="184" y="700" type="qcurve"/>
      <point x="40" y="700" type="line"/>
    </contour>
    <contour>
      <point x="126" y="381" type="line"/>
      <point x="126" y="631" type="line"/>
      <point x="163" y="631" type="line"/>
      <point x="245" y="631"/>
      <point x="245" y="506.969" type="qcurve" smooth="yes"/>
      <point x="245" y="381"/>
      <point x="163" y="381" type="qcurve"/>
    </contour>
  </outline>
</glyph>
<glyph name="Y" format="2">
  <advance width="343"/>
  <unicode hex="0059"/>
  <anchor x="171.5" y="700" name="top"/>
  <outline>
    <contour>
      <point x="128" y="0" type="line"/>
      <point x="214" y="0" type="line"/>
      <point x="214" y="304" type="line"/>
      <point x="328" y="700" type="line"/>
      <point x="242" y="700" type="line"/>
      <point x="171" y="376" type="line"/>
      <point x="101" y="700" type="line"/>
      <point x="15" y="700" type="line"/>
      <point x="128" y="304" type="line"/>
    </contour>
  </outline>
</glyph>
<glyph name="g" format="2">
  <advance width="311"/>
  <unicode hex="0067"/>
  <anchor x="146.5" y="500" name="top"/>
  <outline>
    <contour>
      <point x="15" y="315" type="qcurve" smooth="yes"/>
      <point x="15" y="223.307"/>
      <point x="66" y="163" type="qcurve"/>
      <point x="36" y="141"/>
      <point x="36" y="103" type="qcurve" smooth="yes"/>
      <point x="36" y="52"/>
      <point x="91" y="22" type="qcurve"/>
      <point x="21" y="-4.92308"/>
      <point x="21" y="-97.0996" type="qcurve" smooth="yes"/>
      <point x="21" y="-172.914"/>
      <point x="110" y="-259"/>
      <point x="168" y="-259" type="qcurve" smooth="yes"/>
      <point x="236" y="-259"/>
      <point x="326" y="-138.741"/>
      <point x="326" y="-62.3553" type="qcurve" smooth="yes"/>
      <point x="326" y="6.99492"/>
      <point x="251" y="87"/>
      <point x="161" y="87" type="qcurve" smooth="yes"/>
      <point x="130" y="87"/>
      <point x="100" y="96"/>
      <point x="100" y="108.919" type="qcurve" smooth="yes"/>
      <point x="100" y="122.112"/>
      <point x="126.259" y="130"/>
      <point x="142.187" y="130" type="qcurve" smooth="yes"/>
      <point x="203.234" y="130"/>
      <point x="279" y="237"/>
      <point x="279" y="308.75" type="qcurve" smooth="yes"/>
      <point x="279" y="361.446"/>
      <point x="257" y="426.084" type="qcurve"/>
      <point x="280" y="437.042"/>
      <point x="310" y="437.042" type="qcurve"/>
      <point x="310" y="519" type="line"/>
      <point x="299" y="519"/>
      <point x="261.146" y="496.161"/>
      <point x="238" y="459.183" type="qcurve"/>
      <point x="202" y="509"/>
      <point x="146" y="509" type="qcurve" smooth="yes"/>
      <point x="87" y="509"/>
      <point x="15" y="393.652"/>
    </contour>
    <contour>
      <point x="101" y="317.502" type="qcurve" smooth="yes"/>
      <point x="101" y="368.307"/>
      <point x="126" y="448"/>
      <point x="147" y="448" type="qcurve" smooth="yes"/>
      <point x="168" y="448"/>
      <point x="193" y="369.303"/>
      <point x="193" y="318.498" type="qcurve" smooth="yes"/>
      <point x="193" y="267.693"/>
      <point x="168" y="188"/>
      <point x="147" y="188" type="qcurve" smooth="yes"/>
      <point x="126" y="188"/>
      <point x="101" y="266.697"/>
    </contour>
    <contour>
      <point x="141" y="9" type="qcurve"/>
      <point x="197" y="9"/>
      <point x="249" y="-37.2284"/>
      <point x="249" y="-87.4822" type="qcurve" smooth="yes"/>
      <point x="249" y="-129.695"/>
      <point x="209" y="-190"/>
      <point x="168" y="-190" type="qcurve" smooth="yes"/>
      <point x="125" y="-190"/>
      <point x="98" y="-127.685"/>
      <point x="98" y="-90.4975" type="qcurve" smooth="yes"/>
      <point x="98" y="-26.1726"/>
    </contour>
  </outline>
</glyph>
<glyph name="j" format="2">
  <advance width="192"/>
  <unicode hex="006A"/>
  <outline>
    <contour>
      <point x="-15" y="-250" type="line"/>
      <point x="137" y="-250"/>
      <point x="137" y="-65" type="qcurve"/>
      <point x="137" y="500" type="line"/>
      <point x="51" y="500" type="line"/>
      <point x="51" y="-105" type="line"/>
      <point x="51" y="-181"/>
      <point x="-15" y="-181" type="qcurve"/>
    </contour>
    <contour>
      <point x="94" y="574" type="qcurve" smooth="yes"/>
      <point x="114.183" y="574"/>
      <point x="143.541" y="600"/>
      <point x="143.541" y="637" type="qcurve" smooth="yes"/>
      <point x="143.541" y="674"/>
      <point x="114.183" y="700"/>
      <point x="94" y="700" type="qcurve" smooth="yes"/>
      <point x="73.8165" y="700"/>
      <point x="43.5413" y="674"/>
      <point x="43.5413" y="637" type="qcurve" smooth="yes"/>
      <point x="43.5413" y="600"/>
      <point x="73.8165" y="574"/>
    </contour>
  </outline>
</glyph>
<glyph name="o" format="2">
  <advance width="351"/>
  <unicode hex="006F"/>
  <anchor x="165.5" y="500" name="top"/>
  <outline>
    <contour>
      <point x="176.017" y="-5" type="qcurve" smooth="yes"/>
      <point x="246.469" y="-5"/>
      <point x="336" y="138.245"/>
      <point x="336" y="255.981" type="qcurve" smooth="yes"/>
      <point x="336" y="372.736"/>
      <point x="245.378" y="515"/>
      <point x="176.017" y="515" type="qcurve" smooth="yes"/>
      <point x="105.622" y="515"/>
      <point x="15" y="372.736"/>
      <point x="15" y="255.981" type="qcurve" smooth="yes"/>
      <point x="15" y="138.245"/>
      <point x="105.622" y="-5"/>
    </contour>
    <contour>
      <point x="176.06" y="64" type="qcurve" smooth="yes"/>
      <point x="141.331" y="64"/>
      <point x="101" y="168.27"/>
      <point x="101" y="255.974" type="qcurve" smooth="yes"/>
      <point x="101" y="341.73"/>
      <point x="141.331" y="446"/>
      <point x="176.06" y="446" type="qcurve" smooth="yes"/>
      <point x="209.669" y="446"/>
      <point x="250" y="341.73"/>
      <point x="250" y="255.974" type="qcurve" smooth="yes"/>
      <point x="250" y="168.27"/>
      <point x="209.669" y="64"/>
    </contour>
  </outline>
</glyph>
<glyph name="q" format="2">
  <advance width="340"/>
  <unicode hex="0071"/>
  <outline>
    <contour>
      <point x="310" y="-250" type="line"/>
      <point x="224" y="-250" type="line"/>
      <point x="224" y="38" type="line"/>
      <point x="193" y="-5"/>
      <point x="146" y="-5" type="qcurve" smooth="yes"/>
      <point x="91" y="-5"/>
      <point x="15" y="116"/>
      <point x="15" y="251" type="qcurve" smooth="yes"/>
      <point x="15" y="370"/>
      <point x="75" y="515"/>
      <point x="137" y="515" type="qcurve" smooth="yes"/>
      <point x="170" y="515"/>
      <point x="223" y="474"/>
      <point x="237.31" y="436" type="qcurve"/>
      <point x="257.786" y="500" type="line"/>
      <point x="310" y="500" type="line"/>
    </contour>
    <contour>
      <point x="166" y="56" type="qcurve" smooth="yes"/>
      <point x="193.166" y="56"/>
      <point x="224" y="121.249"/>
      <point x="224" y="176.619" type="qcurve" smooth="yes"/>
      <point x="224" y="301.258" type="line" smooth="yes"/>
      <point x="224" y="376.348"/>
      <point x="194.693" y="446"/>
      <point x="163" y="446" type="qcurve" smooth="yes"/>
      <point x="120" y="446"/>
      <point x="101" y="315.33"/>
      <point x="101" y="244.764" type="qcurve" smooth="yes"/>
      <point x="101" y="56"/>
    </contour>
  </outline>
</glyph>
<glyph name="r" format="2">
  <advance width="213"/>
  <unicode hex="0072"/>
  <anchor x="71.5" y="500" name="top"/>
  <outline>
    <contour>
      <point x="30" y="0" type="line"/>
      <point x="116" y="0" type="line"/>
      <point x="116" y="315.802" type="line"/>
      <point x="116" y="431"/>
      <point x="174" y="431" type="qcurve"/>
      <point x="213" y="431" type="line"/>
      <point x="213" y="500" type="line"/>
      <point x="125.235" y="500"/>
      <point x="102" y="436" type="qcurve"/>
      <point x="91" y="500" type="line"/>
      <point x="30" y="500" type="line"/>
    </contour>
  </outline>
</glyph>
<glyph name="u" format="2">
  <advance width="341"/>
  <unicode hex="0075"/>
  <anchor x="170.5" y="500" name="top"/>
  <outline>
    <contour>
      <point x="311" y="0" type="line"/>
      <point x="311" y="500" type="line"/>
      <point x="225" y="500" type="line"/>
      <point x="225" y="221" type="line"/>
      <point x="225" y="141.822"/>
      <point x="199" y="64"/>
      <point x="170" y="64" type="qcurve" smooth="yes"/>
      <point x="138" y="64"/>
      <point x="116" y="141.822"/>
      <point x="116" y="221.638" type="qcurve"/>
      <point x="116" y="500" type="line"/>
      <point x="30" y="500" type="line"/>
      <point x="30" y="168" type="line"/>
      <point x="30" y="81"/>
      <point x="86.6429" y="-5"/>
      <point x="140.5" y="-5" type="qcurve" smooth="yes"/>
      <point x="203.643" y="-5"/>
      <point x="225" y="58" type="qcurve"/>
      <point x="225" y="0" type="line"/>
    </contour>
  </outline>
</glyph>
<glyph name="macron" format="2">
  <advance width="181"/>
  <unicode hex="00AF"/>
  <anchor x="91" y="700" name="_top"/>
  <outline>
    <contour>
      <point x="1" y="750" type="line"/>
      <point x="181" y="750" type="line"/>
      <point x="181" y="819" type="line"/>
      <point x="1" y="819" type="line"/>
    </contour>
  </outline>
</glyph>
<glyph name="Igrave" format="2">
  <advance width="166"/>
  <unicode hex="00CC"/>
  <anchor x="83" y="700" name="top"/>
  <anchor x="83" y="0" name="ced"/>
  <outline>
    <contour>
      <point x="40" y="0" type="line"/>
      <point x="126" y="0" type="line"/>
      <point x="126" y="700" type="line"/>
      <point x="40" y="700" type="line"/>
    </contour>
    <contour>
      <point x="44.8226" y="750" type="line"/>
      <point x="107" y="750" type="line"/>
      <point x="60.4357" y="890" type="line"/>
      <point x="-25.2074" y="890" type="line"/>
    </contour>
  </outline>
</glyph>
<glyph name="Iacute" format="2">
  <advance width="166"/>
  <unicode hex="00CD"/>
  <anchor x="83" y="700" name="top"/>
  <anchor x="83" y="0" name="ced"/>
  <outline>
    <contour>
      <point x="40" y="0" type="line"/>
      <point x="126" y="0" type="line"/>
      <point x="126" y="700" type="line"/>
      <point x="40" y="700" type="line"/>
    </contour>
    <contour>
      <point x="107.065" y="750" type="line"/>
      <point x="161.727" y="890" type="line"/>
      <point x="75.5136" y="890" type="line"/>
      <point x="44.8436" y="750" type="line"/>
    </contour>
  </outline>
</glyph>
<glyph name="Idieresis" format="2">
  <advance width="166"/>
  <unicode hex="00CF"/>
  <anchor x="83" y="700" name="top"/>
  <anchor x="83" y="0" name="ced"/>
  <outline>
    <contour>
      <point x="40" y="0" type="line"/>
      <point x="126" y="0" type="line"/>
      <point x="126" y="700" type="line"/>
      <point x="40" y="700" type="line"/>
    </contour>
    <contour>
      <point x="-60" y="814.224" type="qcurve" smooth="yes"/>
      <point x="-60" y="750.224"/>
      <point x="-9.53704" y="750.224" type="qcurve" smooth="yes"/>
      <point x="40" y="750.224"/>
      <point x="40" y="814.224" type="qcurve" smooth="yes"/>
      <point x="40" y="877.224"/>
      <point x="-9.53704" y="877.224" type="qcurve" smooth="yes"/>
      <point x="-60" y="877.224"/>
    </contour>
    <contour>
      <point x="126" y="814.224" type="qcurve" smooth="yes"/>
      <point x="126" y="750.224"/>
      <point x="176.463" y="750.224" type="qcurve" smooth="yes"/>
      <point x="226" y="750.224"/>
      <point x="226" y="814.224" type="qcurve" smooth="yes"/>
      <point x="226" y="877.224"/>
      <point x="176.463" y="877.224" type="qcurve" smooth="yes"/>
      <point x="126" y="877.224"/>
    </contour>
  </outline>
</glyph>
<glyph name="Otilde" format="2">
  <advance width="379"/>
  <unicode hex="00D5"/>
  <anchor x="189.5" y="700" name="top"/>
  <outline>
    <contour>
      <point x="190" y="-15" type="qcurve" smooth="yes"/>
      <point x="274" y="-15"/>
      <point x="359" y="192"/>
      <point x="359" y="353" type="qcurve" smooth="yes"/>
      <point x="359" y="514"/>
      <point x="274" y="721"/>
      <point x="190" y="721" type="qcurve" smooth="yes"/>
      <point x="106" y="721"/>
      <point x="20" y="514"/>
      <point x="20" y="353" type="qcurve" smooth="yes"/>
      <point x="20" y="192"/>
      <point x="106" y="-15"/>
    </contour>
    <contour>
      <point x="190" y="54" type="qcurve" smooth="yes"/>
      <point x="147" y="54"/>
      <point x="112" y="227"/>
      <point x="112" y="353" type="qcurve" smooth="yes"/>
      <point x="112" y="479"/>
      <point x="147" y="652"/>
      <point x="190" y="652" type="qcurve" smooth="yes"/>
      <point x="233" y="652"/>
      <point x="267" y="480"/>
      <point x="267" y="353" type="qcurve" smooth="yes"/>
      <point x="267" y="226"/>
      <point x="233" y="54"/>
    </contour>
    <contour>
      <point x="120.5" y="750" type="line"/>
      <point x="120.5" y="790.663"/>
      <point x="143.132" y="790.663" type="qcurve" smooth="yes"/>
      <point x="161.383" y="790.663"/>
      <point x="210.026" y="750"/>
      <point x="240.351" y="750" type="qcurve" smooth="yes"/>
      <point x="275.512" y="750"/>
      <point x="326.34" y="800.081"/>
      <point x="326.5" y="862.105" type="qcurve"/>
      <point x="257.5" y="862.105" type="line"/>
      <point x="257.5" y="819.337"/>
      <point x="233.745" y="819.337" type="qcurve" smooth="yes"/>
      <point x="215.184" y="819.337"/>
      <point x="163.592" y="860"/>
      <point x="133.491" y="860" type="qcurve" smooth="yes"/>
      <point x="98.6567" y="860"/>
      <point x="51.5" y="810.341"/>
      <point x="51.5" y="750" type="qcurve"/>
    </contour>
  </outline>
</glyph>
<glyph name="Odieresis" format="2">
  <advance width="379"/>
  <unicode hex="00D6"/>
  <anchor x="189.5" y="700" name="top"/>
  <outline>
    <contour>
      <point x="190" y="-15" type="qcurve" smooth="yes"/>
      <point x="274" y="-15"/>
      <point x="359" y="192"/>
      <point x="359" y="353" type="qcurve" smooth="yes"/>
      <point x="359" y="514"/>
      <point x="274" y="721"/>
      <point x="190" y="721" type="qcurve" smooth="yes"/>
      <point x="106" y="721"/>
      <point x="20" y="514"/>
      <point x="20" y="353" type="qcurve" smooth="yes"/>
      <point x="20" y="192"/>
      <point x="106" y="-15"/>
    </contour>
    <contour>
      <point x="190" y="54" type="qcurve" smooth="yes"/>
      <point x="147" y="54"/>
      <point x="112" y="227"/>
      <point x="112" y="353" type="qcurve" smooth="yes"/>
      <point x="112" y="479"/>
      <point x="147" y="652"/>
      <point x="190" y="652" type="qcurve" smooth="yes"/>
      <point x="233" y="652"/>
      <point x="267" y="480"/>
      <point x="267" y="353" type="qcurve" smooth="yes"/>
      <point x="267" y="226"/>
      <point x="233" y="54"/>
    </contour>
    <contour>
      <point x="46.5" y="814.224" type="qcurve" smooth="yes"/>
      <point x="46.5" y="750.224"/>
      <point x="96.963" y="750.224" type="qcurve" smooth="yes"/>
      <point x="146.5" y="750.224"/>
      <point x="146.5" y="814.224" type="qcurve" smooth="yes"/>
      <point x="146.5" y="877.224"/>
      <point x="96.963" y="877.224" type="qcurve" smooth="yes"/>
      <point x="46.5" y="877.224"/>
    </contour>
    <contour>
      <point x="232.5" y="814.224" type="qcurve" smooth="yes"/>
      <point x="232.5" y="750.224"/>
      <point x="282.963" y="750.224" type="qcurve" smooth="yes"/>
      <point x="332.5" y="750.224"/>
      <point x="332.5" y="814.224" type="qcurve" smooth="yes"/>
      <point x="332.5" y="877.224"/>
      <point x="282.963" y="877.224" type="qcurve" smooth="yes"/>
      <point x="232.5" y="877.224"/>
    </contour>
  </outline>
</glyph>
<glyph name="Ucircumflex" format="2">
  <advance width="397"/>
  <unicode hex="00DB"/>
  <anchor x="198.5" y="700" name="top"/>
  <anchor x="198.5" y="0.298" name="ced"/>
  <outline>
    <contour>
      <point x="40" y="160" type="line"/>
      <point x="40" y="90"/>
      <point x="119" y="-21"/>
      <point x="193" y="-21" type="qcurve" smooth="yes"/>
      <point x="268" y="-21"/>
      <point x="357" y="90"/>
      <point x="357" y="160" type="qcurve"/>
      <point x="357" y="700" type="line"/>
      <point x="271" y="700" type="line"/>
      <point x="271" y="140" type="line"/>
      <point x="271" y="48"/>
      <point x="197" y="48" type="qcurve" smooth="yes"/>
      <point x="126" y="48"/>
      <point x="126" y="140" type="qcurve"/>
      <point x="126" y="700" type="line"/>
      <point x="40" y="700" type="line"/>
    </contour>
    <contour>
      <point x="157.5" y="750" type="line"/>
      <point x="198.5" y="821" type="line"/>
      <point x="239.5" y="750" type="line"/>
      <point x="325.5" y="750" type="line"/>
      <point x="240.154" y="884" type="line"/>
      <point x="156.846" y="884" type="line"/>
      <point x="71.5" y="750" type="line"/>
    </contour>
  </outline>
</glyph>
<glyph name="Yacute" format="2">
  <advance width="343"/>
  <unicode hex="00DD"/>
  <anchor x="171.5" y="700" name="top"/>
  <outline>
    <contour>
      <point x="128" y="0" type="line"/>
      <point x="214" y="0" type="line"/>
      <point x="214" y="304" type="line"/>
      <point x="328" y="700" type="line"/>
      <point x="242" y="700" type="line"/>
      <point x="171" y="376" type="line"/>
      <point x="101" y="700" type="line"/>
      <point x="15" y="700" type="line"/>
      <point x="128" y="304" type="line"/>
    </contour>
    <contour>
      <point x="195.565" y="750" type="line"/>
      <point x="250.227" y="890" type="line"/>
      <point x="164.014" y="890" type="line"/>
      <point x="133.344" y="750" type="line"/>
    </contour>
  </outline>
</glyph>
<glyph name="Thorn" format="2">
  <advance width="374"/>
  <unicode hex="00DE"/>
  <outline>
    <contour>
      <point x="40" y="0" type="line"/>
      <point x="126" y="0" type="line"/>
      <point x="126" y="162" type="line"/>
      <point x="188.752" y="162" type="line"/>
      <point x="354" y="162"/>
      <point x="354" y="358.8" type="qcurve" smooth="yes"/>
      <point x="354" y="550"/>
      <point x="201.303" y="550" type="qcurve"/>
      <point x="126" y="550" type="line"/>
      <point x="126" y="700" type="line"/>
      <point x="40" y="700" type="line"/>
    </contour>
    <contour>
      <point x="126" y="231" type="line"/>
      <point x="126" y="481" type="line"/>
      <point x="194" y="481" type="line"/>
      <point x="278" y="481"/>
      <point x="278" y="353.6" type="qcurve" smooth="yes"/>
      <point x="278" y="231"/>
      <point x="199" y="231" type="qcurve"/>
    </contour>
  </outline>
</glyph>
<glyph name="atilde" format="2">
  <advance width="323"/>
  <unicode hex="00E3"/>
  <anchor x="160" y="500" name="top"/>
  <outline>
    <contour>
      <point x="116" y="-5" type="qcurve" smooth="yes"/>
      <point x="144" y="-5"/>
      <point x="193" y="22"/>
      <point x="207" y="54" type="qcurve"/>
      <point x="207" y="0" type="line"/>
      <point x="293" y="0" type="line"/>
      <point x="293" y="337" type="line"/>
      <point x="293" y="429"/>
      <point x="227" y="515"/>
      <point x="164" y="515" type="qcurve" smooth="yes"/>
      <point x="101" y="515"/>
      <point x="27" y="431"/>
      <point x="27" y="330" type="qcurve"/>
      <point x="113" y="330" type="line"/>
      <point x="113" y="392"/>
      <point x="136.747" y="446"/>
      <point x="164.453" y="446" type="qcurve" smooth="yes"/>
      <point x="191.168" y="446"/>
      <point x="207" y="392"/>
      <point x="207" y="326" type="qcurve"/>
      <point x="102" y="282"/>
      <point x="15" y="184"/>
      <point x="15" y="122" type="qcurve" smooth="yes"/>
      <point x="15" y="75"/>
      <point x="70" y="-5"/>
    </contour>
    <contour>
      <point x="139" y="68" type="qcurve" smooth="yes"/>
      <point x="114" y="68"/>
      <point x="86" y="98"/>
      <point x="86" y="123" type="qcurve" smooth="yes"/>
      <point x="86" y="163"/>
      <point x="167" y="238"/>
      <point x="207" y="256" type="qcurve"/>
      <point x="207" y="156" type="line"/>
      <point x="207" y="110"/>
      <point x="167" y="68"/>
    </contour>
    <contour>
      <point x="94" y="550" type="line"/>
      <point x="94" y="590.663"/>
      <point x="116.632" y="590.663" type="qcurve" smooth="yes"/>
      <point x="134.883" y="590.663"/>
      <point x="183.526" y="550"/>
      <point x="213.851" y="550" type="qcurve" smooth="yes"/>
      <point x="249.012" y="550"/>
      <point x="299.84" y="600.081"/>
      <point x="300" y="662.105" type="qcurve"/>
      <point x="231" y="662.105" type="line"/>
      <point x="231" y="619.337"/>
      <point x="207.245" y="619.337" type="qcurve" smooth="yes"/>
      <point x="188.684" y="619.337"/>
      <point x="137.092" y="660"/>
      <point x="106.991" y="660" type="qcurve" smooth="yes"/>
      <point x="72.1567" y="660"/>
      <point x="25" y="610.341"/>
      <point x="25" y="550" type="qcurve"/>
    </contour>
  </outline>
</glyph>
<glyph name="igrave" format="2">
  <advance width="146"/>
  <unicode hex="00EC"/>
  <anchor x="73" y="500" name="top"/>
  <anchor x="73" y="0" name="ced"/>
  <anchor x="68" y="0" name="ogonek"/>
  <outline>
    <contour>
      <point x="30" y="0" type="line"/>
      <point x="116" y="0" type="line"/>
      <point x="116" y="500" type="line"/>
      <point x="30" y="500" type="line"/>
    </contour>
    <contour>
      <point x="34.8226" y="550" type="line"/>
      <point x="97" y="550" type="line"/>
      <point x="50.4357" y="690" type="line"/>
      <point x="-35.2074" y="690" type="line"/>
    </contour>
  </outline>
</glyph>
<glyph name="idieresis" format="2">
  <advance width="146"/>
  <unicode hex="00EF"/>
  <anchor x="73" y="500" name="top"/>
  <anchor x="73" y="0" name="ced"/>
  <anchor x="68" y="0" name="ogonek"/>
  <outline>
    <contour>
      <point x="30" y="0" type="line"/>
      <point x="116" y="0" type="line"/>
      <point x="116" y="500" type="line"/>
      <point x="30" y="500" type="line"/>
    </contour>
    <contour>
      <point x="-70" y="637.224" type="qcurve" smooth="yes"/>
      <point x="-70" y="573.224"/>
      <point x="-19.537" y="573.224" type="qcurve" smooth="yes"/>
      <point x="30" y="573.224"/>
      <point x="30" y="637.224" type="qcurve" smooth="yes"/>
      <point x="30" y="700.224"/>
      <point x="-19.537" y="700.224" type="qcurve" smooth="yes"/>
      <point x="-70" y="700.224"/>
    </contour>
    <contour>
      <point x="116" y="637.224" type="qcurve" smooth="yes"/>
      <point x="116" y="573.224"/>
      <point x="166.463" y="573.224" type="qcurve" smooth="yes"/>
      <point x="216" y="573.224"/>
      <point x="216" y="637.224" type="qcurve" smooth="yes"/>
      <point x="216" y="700.224"/>
      <point x="166.463" y="700.224" type="qcurve" smooth="yes"/>
      <point x="116" y="700.224"/>
    </contour>
  </outline>
</glyph>
<glyph name="ntilde" format="2">
  <advance width="341"/>
  <unicode hex="00F1"/>
  <anchor x="170.5" y="500" name="top"/>
  <outline>
    <contour>
      <point x="30" y="0" type="line"/>
      <point x="116" y="0" type="line"/>
      <point x="116" y="215" type="line"/>
      <point x="116" y="358"/>
      <point x="139" y="446"/>
      <point x="173" y="446" type="qcurve" smooth="yes"/>
      <point x="206" y="446"/>
      <point x="225" y="355"/>
      <point x="225" y="215" type="qcurve"/>
      <point x="225" y="0" type="line"/>
      <point x="311" y="0" type="line"/>
      <point x="311" y="299" type="line"/>
      <point x="311" y="432"/>
      <point x="254" y="515"/>
      <point x="205" y="515" type="qcurve" smooth="yes"/>
      <point x="172" y="515"/>
      <point x="119" y="476"/>
      <point x="102" y="436" type="qcurve"/>
      <point x="92" y="500" type="line"/>
      <point x="30" y="500" type="line"/>
    </contour>
    <contour>
      <point x="101.5" y="550" type="line"/>
      <point x="101.5" y="590.663"/>
      <point x="124.132" y="590.663" type="qcurve" smooth="yes"/>
      <point x="142.383" y="590.663"/>
      <point x="191.026" y="550"/>
      <point x="221.351" y="550" type="qcurve" smooth="yes"/>
      <point x="256.512" y="550"/>
      <point x="307.34" y="600.081"/>
      <point x="307.5" y="662.105" type="qcurve"/>
      <point x="238.5" y="662.105" type="line"/>
      <point x="238.5" y="619.337"/>
      <point x="214.745" y="619.337" type="qcurve" smooth="yes"/>
      <point x="196.184" y="619.337"/>
      <point x="144.592" y="660"/>
      <point x="114.491" y="660" type="qcurve" smooth="yes"/>
      <point x="79.6567" y="660"/>
      <point x="32.5" y="610.341"/>
      <point x="32.5" y="550" type="qcurve"/>
    </contour>
  </outline>
</glyph>
<glyph name="otilde" format="2">
  <advance width="331"/>
  <unicode hex="00F5"/>
  <anchor x="165.5" y="500" name="top"/>
  <outline>
    <contour>
      <point x="165.985" y="-5" type="qcurve" smooth="yes"/>
      <point x="232.048" y="-5"/>
      <point x="316" y="138.245"/>
      <point x="316" y="255.981" type="qcurve" smooth="yes"/>
      <point x="316" y="372.736"/>
      <point x="231.024" y="515"/>
      <point x="165.985" y="515" type="qcurve" smooth="yes"/>
      <point x="99.9762" y="515"/>
      <point x="15" y="372.736"/>
      <point x="15" y="255.981" type="qcurve" smooth="yes"/>
      <point x="15" y="138.245"/>
      <point x="99.9762" y="-5"/>
    </contour>
    <contour>
      <point x="165.985" y="64" type="qcurve" smooth="yes"/>
      <point x="135.917" y="64"/>
      <point x="101" y="168.27"/>
      <point x="101" y="255.974" type="qcurve" smooth="yes"/>
      <point x="101" y="341.73"/>
      <point x="135.917" y="446"/>
      <point x="165.985" y="446" type="qcurve" smooth="yes"/>
      <point x="195.083" y="446"/>
      <point x="230" y="341.73"/>
      <point x="230" y="255.974" type="qcurve" smooth="yes"/>
      <point x="230" y="168.27"/>
      <point x="195.083" y="64"/>
    </contour>
    <contour>
      <point x="96.5" y="550" type="line"/>
      <point x="96.5" y="590.663"/>
      <point x="119.132" y="590.663" type="qcurve" smooth="yes"/>
      <point x="137.383" y="590.663"/>
      <point x="186.026" y="550"/>
      <point x="216.351" y="550" type="qcurve" smooth="yes"/>
      <point x="251.512" y="550"/>
      <point x="302.34" y="600.081"/>
      <point x="302.5" y="662.105" type="qcurve"/>
      <point x="233.5" y="662.105" type="line"/>
      <point x="233.5" y="619.337"/>
      <point x="209.745" y="619.337" type="qcurve" smooth="yes"/>
      <point x="191.184" y="619.337"/>
      <point x="139.592" y="660"/>
      <point x="109.491" y="660" type="qcurve" smooth="yes"/>
      <point x="74.6567" y="660"/>
      <point x="27.5" y="610.341"/>
      <point x="27.5" y="550" type="qcurve"/>
    </contour>
  </outline>
</glyph>
<glyph name="divide" format="2">
  <advance width="349"/>
  <unicode hex="00F7"/>
  <outline>
    <contour>
      <point x="120" y="149" type="qcurve" smooth="yes"/>
      <point x="120" y="112"/>
      <point x="153" y="85"/>
      <point x="174" y="85" type="qcurve" smooth="yes"/>
      <point x="195" y="85"/>
      <point x="228" y="112"/>
      <point x="228" y="149" type="qcurve" smooth="yes"/>
      <point x="228" y="186"/>
      <point x="195" y="212"/>
      <point x="174" y="212" type="qcurve" smooth="yes"/>
      <point x="153" y="212"/>
      <point x="120" y="186"/>
    </contour>
    <contour>
      <point x="0" y="269" type="line"/>
      <point x="349" y="269" type="line"/>
      <point x="349" y="353" type="line"/>
      <point x="0" y="353" type="line"/>
    </contour>
    <contour>
      <point x="120" y="472" type="qcurve" smooth="yes"/>
      <point x="120" y="435"/>
      <point x="153" y="408"/>
      <point x="174" y="408" type="qcurve" smooth="yes"/>
      <point x="195" y="408"/>
      <point x="228" y="435"/>
      <point x="228" y="472" type="qcurve" smooth="yes"/>
      <point x="228" y="509"/>
      <point x="195" y="535"/>
      <point x="174" y="535" type="qcurve" smooth="yes"/>
      <point x="153" y="535"/>
      <point x="120" y="509"/>
    </contour>
  </outline>
</glyph>
<glyph name="ugrave" format="2">
  <advance width="341"/>
  <unicode hex="00F9"/>
  <anchor x="170.5" y="500" name="top"/>
  <outline>
    <contour>
      <point x="311" y="0" type="line"/>
      <point x="311" y="500" type="line"/>
      <point x="225" y="500" type="line"/>
      <point x="225" y="221" type="line"/>
      <point x="225" y="141.822"/>
      <point x="199" y="64"/>
      <point x="170" y="64" type="qcurve" smooth="yes"/>
      <point x="138" y="64"/>
      <point x="116" y="141.822"/>
      <point x="116" y="221.638" type="qcurve"/>
      <point x="116" y="500" type="line"/>
      <point x="30" y="500" type="line"/>
      <point x="30" y="168" type="line"/>
      <point x="30" y="81"/>
      <point x="86.6429" y="-5"/>
      <point x="140.5" y="-5" type="qcurve" smooth="yes"/>
      <point x="203.643" y="-5"/>
      <point x="225" y="58" type="qcurve"/>
      <point x="225" y="0" type="line"/>
    </contour>
    <contour>
      <point x="132.323" y="550" type="line"/>
      <point x="194.5" y="550" type="line"/>
      <point x="147.936" y="690" type="line"/>
      <point x="62.2926" y="690" type="line"/>
    </contour>
  </outline>
</glyph>
<glyph name="uacute" format="2">
  <advance width="341"/>
  <unicode hex="00FA"/>
  <anchor x="170.5" y="500" name="top"/>
  <outline>
    <contour>
      <point x="311" y="0" type="line"/>
      <point x="311" y="500" type="line"/>
      <point x="225" y="500" type="line"/>
      <point x="225" y="221" type="line"/>
      <point x="225" y="141.822"/>
      <point x="199" y="64"/>
      <point x="170" y="64" type="qcurve" smooth="yes"/>
      <point x="138" y="64"/>
      <point x="116" y="141.822"/>
      <point x="116" y="221.638" type="qcurve"/>
      <point x="116" y="500" type="line"/>
      <point x="30" y="500" type="line"/>
      <point x="30" y="168" type="line"/>
      <point x="30" y="81"/>
      <point x="86.6429" y="-5"/>
      <point x="140.5" y="-5" type="qcurve" smooth="yes"/>
      <point x="203.643" y="-5"/>
      <point x="225" y="58" type="qcurve"/>
      <point x="225" y="0" type="line"/>
    </contour>
    <contour>
      <point x="194.565" y="550" type="line"/>
      <point x="249.227" y="690" type="line"/>
      <point x="163.014" y="690" type="line"/>
      <point x="132.344" y="550" type="line"/>
    </contour>
  </outline>
</glyph>
<glyph name="udieresis" format="2">
  <advance width="341"/>
  <unicode hex="00FC"/>
  <anchor x="170.5" y="500" name="top"/>
  <outline>
    <contour>
      <point x="311" y="0" type="line"/>
      <point x="311" y="500" type="line"/>
      <point x="225" y="500" type="line"/>
      <point x="225" y="221" type="line"/>
      <point x="225" y="141.822"/>
      <point x="199" y="64"/>
      <point x="170" y="64" type="qcurve" smooth="yes"/>
      <point x="138" y="64"/>
      <point x="116" y="141.822"/>
      <point x="116" y="221.638" type="qcurve"/>
      <point x="116" y="500" type="line"/>
      <point x="30" y="500" type="line"/>
      <point x="30" y="168" type="line"/>
      <point x="30" y="81"/>
      <point x="86.6429" y="-5"/>
      <point x="140.5" y="-5" type="qcurve" smooth="yes"/>
      <point x="203.643" y="-5"/>
      <point x="225" y="58" type="qcurve"/>
      <point x="225" y="0" type="line"/>
    </contour>
    <contour>
      <point x="27.5" y="614.224" type="qcurve" smooth="yes"/>
      <point x="27.5" y="550.224"/>
      <point x="77.963" y="550.224" type="qcurve" smooth="yes"/>
      <point x="127.5" y="550.224"/>
      <point x="127.5" y="614.224" type="qcurve" smooth="yes"/>
      <point x="127.5" y="677.224"/>
      <point x="77.963" y="677.224" type="qcurve" smooth="yes"/>
      <point x="27.5" y="677.224"/>
    </contour>
    <contour>
      <point x="213.5" y="614.224" type="qcurve" smooth="yes"/>
      <point x="213.5" y="550.224"/>
      <point x="263.963" y="550.224" type="qcurve" smooth="yes"/>
      <point x="313.5" y="550.224"/>
      <point x="313.5" y="614.224" type="qcurve" smooth="yes"/>
      <point x="313.5" y="677.224"/>
      <point x="263.963" y="677.224" type="qcurve" smooth="yes"/>
      <point x="213.5" y="677.224"/>
    </contour>
  </outline>
</glyph>
<glyph name="thorn" format="2">
  <advance width="341"/>
  <unicode hex="00FE"/>
  <outline>
    <contour>
      <point x="30.5" y="-259" type="line"/>
      <point x="116.5" y="-259" type="line"/>
      <point x="116.5" y="38" type="line"/>
      <point x="147.5" y="-5"/>
      <point x="194.5" y="-5" type="qcurve" smooth="yes"/>
      <point x="249.5" y="-5"/>
      <point x="325.5" y="116"/>
      <point x="325.5" y="251" type="qcurve" smooth="yes"/>
      <point x="325.5" y="370"/>
      <point x="265.5" y="515"/>
      <point x="201.858" y="515" type="qcurve" smooth="yes"/>
      <point x="170.5" y="515"/>
      <point x="128.44" y="482.462"/>
      <point x="116.5" y="464.391" type="qcurve"/>
      <point x="116.5" y="750" type="line"/>
      <point x="30.5" y="750" type="line"/>
    </contour>
    <contour>
      <point x="174.5" y="56" type="qcurve" smooth="yes"/>
      <point x="147.35" y="56"/>
      <point x="116.5" y="120.9"/>
      <point x="116.5" y="176" type="qcurve" smooth="yes"/>
      <point x="116.5" y="300" type="line" smooth="yes"/>
      <point x="116.5" y="446"/>
      <point x="173.5" y="446" type="qcurve" smooth="yes"/>
      <point x="239.5" y="446"/>
      <point x="239.5" y="250" type="qcurve" smooth="yes"/>
      <point x="239.5" y="56"/>
    </contour>
  </outline>
</glyph>
<glyph name="ydieresis" format="2">
  <advance width="326"/>
  <unicode hex="00FF"/>
  <anchor x="163" y="500" name="top"/>
  <outline>
    <contour>
      <point x="7" y="-250" type="line"/>
      <point x="120" y="-250"/>
      <point x="187" y="-156"/>
      <point x="196" y="-111" type="qcurve" smooth="yes"/>
      <point x="321" y="500" type="line"/>
      <point x="235" y="500" type="line"/>
      <point x="173" y="119" type="line"/>
      <point x="91" y="500" type="line"/>
      <point x="5" y="500" type="line"/>
      <point x="129" y="-38" type="line"/>
      <point x="118" y="-134"/>
      <point x="66" y="-171"/>
      <point x="7" y="-171" type="qcurve"/>
    </contour>
    <contour>
      <point x="20" y="614.224" type="qcurve" smooth="yes"/>
      <point x="20" y="550.224"/>
      <point x="70.463" y="550.224" type="qcurve" smooth="yes"/>
      <point x="120" y="550.224"/>
      <point x="120" y="614.224" type="qcurve" smooth="yes"/>
      <point x="120" y="677.224"/>
      <point x="70.463" y="677.224" type="qcurve" smooth="yes"/>
      <point x="20" y="677.224"/>
    </contour>
    <contour>
      <point x="206" y="614.224" type="qcurve" smooth="yes"/>
      <point x="206" y="550.224"/>
      <point x="256.463" y="550.224" type="qcurve" smooth="yes"/>
      <point x="306" y="550.224"/>
      <point x="306" y="614.224" type="qcurve" smooth="yes"/>
      <point x="306" y="677.224"/>
      <point x="256.463" y="677.224" type="qcurve" smooth="yes"/>
      <point x="206" y="677.224"/>
    </contour>
  </outline>
</glyph>
<glyph name="Aogonek" format="2">
  <advance width="343"/>
  <unicode hex="0104"/>
  <anchor x="172" y="700" name="top"/>
  <outline>
    <contour>
      <point x="328" y="0" type="line"/>
      <point x="233" y="700" type="line"/>
      <point x="110" y="700" type="line"/>
      <point x="15" y="0" type="line"/>
      <point x="101" y="0" type="line"/>
      <point x="124" y="209" type="line"/>
      <point x="219" y="209" type="line"/>
      <point x="242" y="0" type="line"/>
    </contour>
    <contour>
      <point x="210" y="278" type="line"/>
      <point x="133" y="278" type="line"/>
      <point x="171" y="607" type="line"/>
    </contour>
    <contour>
      <point x="242" y="0" type="line"/>
      <point x="214.629" y="-35.5375" type="line"/>
      <point x="166" y="-98.6761"/>
      <point x="166" y="-154.534" type="qcurve" smooth="yes"/>
      <point x="166" y="-259"/>
      <point x="324" y="-259" type="qcurve"/>
      <point x="324" y="-190" type="line"/>
      <point x="252" y="-190"/>
      <point x="252" y="-143.85" type="qcurve" smooth="yes"/>
      <point x="252" y="-108.898"/>
      <point x="298.624" y="-42.0921" type="qcurve"/>
      <point x="328" y="0" type="line"/>
    </contour>
  </outline>
</glyph>
<glyph name="aogonek" format="2">
  <advance width="323"/>
  <unicode hex="0105"/>
  <anchor x="160" y="500" name="top"/>
  <anchor x="189.902" y="0" name="ogonek"/>
  <outline>
    <contour>
      <point x="116" y="-5" type="qcurve" smooth="yes"/>
      <point x="144" y="-5"/>
      <point x="193" y="22"/>
      <point x="207" y="54" type="qcurve"/>
      <point x="207" y="0" type="line"/>
      <point x="293" y="0" type="line"/>
      <point x="293" y="337" type="line"/>
      <point x="293" y="429"/>
      <point x="227" y="515"/>
      <point x="164" y="515" type="qcurve" smooth="yes"/>
      <point x="101" y="515"/>
      <point x="27" y="431"/>
      <point x="27" y="330" type="qcurve"/>
      <point x="113" y="330" type="line"/>
      <point x="113" y="392"/>
      <point x="136.747" y="446"/>
      <point x="164.453" y="446" type="qcurve" smooth="yes"/>
      <point x="191.168" y="446"/>
      <point x="207" y="392"/>
      <point x="207" y="326" type="qcurve"/>
      <point x="102" y="282"/>
      <point x="15" y="184"/>
      <point x="15" y="122" type="qcurve" smooth="yes"/>
      <point x="15" y="75"/>
      <point x="70" y="-5"/>
    </contour>
    <contour>
      <point x="139" y="68" type="qcurve" smooth="yes"/>
      <point x="114" y="68"/>
      <point x="86" y="98"/>
      <point x="86" y="123" type="qcurve" smooth="yes"/>
      <point x="86" y="163"/>
      <point x="167" y="238"/>
      <point x="207" y="256" type="qcurve"/>
      <point x="207" y="156" type="line"/>
      <point x="207" y="110"/>
      <point x="167" y="68"/>
    </contour>
    <contour>
      <point x="207" y="0" type="line"/>
      <point x="179.629" y="-35.5375" type="line"/>
      <point x="131" y="-98.6761"/>
      <point x="131" y="-154.534" type="qcurve" smooth="yes"/>
      <point x="131" y="-259"/>
      <point x="289" y="-259" type="qcurve"/>
      <point x="289" y="-190" type="line"/>
      <point x="217" y="-190"/>
      <point x="217" y="-143.85" type="qcurve" smooth="yes"/>
      <point x="217" y="-108.898"/>
      <point x="263.624" y="-42.0921" type="qcurve"/>
      <point x="293" y="0" type="line"/>
    </contour>
  </outline>
</glyph>
<glyph name="cacute" format="2">
  <advance width="330"/>
  <unicode hex="0107"/>
  <anchor x="171" y="0" name="ced"/>
  <anchor x="172.57" y="500" name="top"/>
  <outline>
    <contour>
      <point x="169.24" y="-5" type="qcurve" smooth="yes"/>
      <point x="234.06" y="-5"/>
      <point x="313" y="112.706"/>
      <point x="313" y="182" type="qcurve"/>
      <point x="227" y="182" type="line"/>
      <point x="227" y="134.062"/>
      <point x="202" y="64"/>
      <point x="171" y="64" type="qcurve" smooth="yes"/>
      <point x="134" y="64"/>
      <point x="101" y="172.168"/>
      <point x="101" y="255" type="qcurve" smooth="yes"/>
      <point x="101" y="337.832"/>
      <point x="134" y="446"/>
      <point x="175.517" y="446" type="qcurve" smooth="yes"/>
      <point x="206" y="446"/>
      <point x="229" y="390.593"/>
      <point x="229" y="330" type="qcurve"/>
      <point x="315" y="330" type="line"/>
      <point x="315" y="411.048"/>
      <point x="235.072" y="515"/>
      <point x="172.215" y="515" type="qcurve" smooth="yes"/>
      <point x="100" y="515"/>
      <point x="15" y="372.736"/>
      <point x="15" y="255" type="qcurve" smooth="yes"/>
      <point x="15" y="138.245"/>
      <point x="98" y="-5"/>
    </contour>
    <contour>
      <point x="196.635" y="550" type="line"/>
      <point x="251.297" y="690" type="line"/>
      <point x="165.084" y="690" type="line"/>
      <point x="134.414" y="550" type="line"/>
    </contour>
  </outline>
</glyph>
<glyph name="Dcaron" format="2">
  <advance width="355"/>
  <unicode hex="010E"/>
  <anchor x="168" y="700" name="top"/>
  <outline>
    <contour>
      <point x="162" y="0" type="line"/>
      <point x="258" y="0"/>
      <point x="335" y="199"/>
      <point x="335" y="350" type="qcurve" smooth="yes"/>
      <point x="335" y="503"/>
      <point x="257" y="700"/>
      <point x="159" y="700" type="qcurve"/>
      <point x="40" y="700" type="line"/>
      <point x="40" y="0" type="line"/>
    </contour>
    <contour>
      <point x="126" y="69" type="line"/>
      <point x="126" y="631" type="line"/>
      <point x="175" y="631" type="line" smooth="yes"/>
      <point x="218" y="631"/>
      <point x="249" y="469"/>
      <point x="249" y="351" type="qcurve" smooth="yes"/>
      <point x="249" y="234"/>
      <point x="220" y="69"/>
      <point x="180" y="69" type="qcurve" smooth="yes"/>
    </contour>
    <contour>
      <point x="209.154" y="749.998" type="line"/>
      <point x="284.5" y="883.998" type="line"/>
      <point x="198.5" y="883.998" type="line"/>
      <point x="167.5" y="812.998" type="line"/>
      <point x="136.5" y="883.998" type="line"/>
      <point x="50.5" y="883.998" type="line"/>
      <point x="125.846" y="749.998" type="line"/>
    </contour>
  </outline>
</glyph>
<glyph name="dcaron" format="2">
  <advance width="372"/>
  <unicode hex="010F"/>
  <outline>
    <contour>
      <point x="310.621" y="0" type="line"/>
      <point x="224.621" y="0" type="line"/>
      <point x="224.621" y="38" type="line"/>
      <point x="193.621" y="-5"/>
      <point x="146.621" y="-5" type="qcurve" smooth="yes"/>
      <point x="91.6206" y="-5"/>
      <point x="15.6206" y="116"/>
      <point x="15.6206" y="251" type="qcurve" smooth="yes"/>
      <point x="15.6206" y="370"/>
      <point x="75.6206" y="515"/>
      <point x="137.621" y="515" type="qcurve" smooth="yes"/>
      <point x="170.621" y="515"/>
      <point x="223.621" y="474"/>
      <point x="239.621" y="436" type="qcurve"/>
      <point x="239.621" y="700" type="line"/>
      <point x="310.621" y="700" type="line"/>
    </contour>
    <contour>
      <point x="166.621" y="56" type="qcurve" smooth="yes"/>
      <point x="193.786" y="56"/>
      <point x="224.621" y="120.914"/>
      <point x="224.621" y="176" type="qcurve" smooth="yes"/>
      <point x="224.621" y="300" type="line" smooth="yes"/>
      <point x="224.621" y="446"/>
      <point x="167.621" y="446" type="qcurve" smooth="yes"/>
      <point x="101.621" y="446"/>
      <point x="101.621" y="250" type="qcurve" smooth="yes"/>
      <point x="101.621" y="56"/>
    </contour>
    <contour>
      <point x="348.033" y="652.258" type="qcurve" smooth="yes"/>
      <point x="348.033" y="683.775"/>
      <point x="377.033" y="707.775"/>
      <point x="398.499" y="707.775" type="qcurve" smooth="yes"/>
      <point x="448.033" y="707.775"/>
      <point x="448.033" y="645.058" type="qcurve" smooth="yes"/>
      <point x="448.033" y="586.175"/>
      <point x="406.033" y="507.775" type="qcurve"/>
      <point x="372.033" y="507.775" type="line"/>
      <point x="396.033" y="592.775" type="line"/>
      <point x="348.033" y="592.775"/>
    </contour>
  </outline>
</glyph>
<glyph name="kcommaaccent" format="2">
  <advance width="301"/>
  <unicode hex="0137"/>
  <outline>
    <contour>
      <point x="30" y="0" type="line"/>
      <point x="116" y="0" type="line"/>
      <point x="116" y="180" type="line"/>
      <point x="135" y="208" type="line"/>
      <point x="209" y="0" type="line"/>
      <point x="296" y="0" type="line"/>
      <point x="177" y="266" type="line"/>
      <point x="292" y="500" type="line"/>
      <point x="211" y="500" type="line"/>
      <point x="116" y="290" type="line"/>
      <point x="116" y="700" type="line"/>
      <point x="30" y="700" type="line"/>
    </contour>
    <contour>
      <point x="100.5" y="-96.9927" type="qcurve" smooth="yes"/>
      <point x="100.5" y="-156.475"/>
      <point x="148.5" y="-156.475" type="qcurve"/>
      <point x="124.5" y="-241.475" type="line"/>
      <point x="158.5" y="-241.475" type="line"/>
      <point x="200.5" y="-163.075"/>
      <point x="200.5" y="-104.192" type="qcurve" smooth="yes"/>
      <point x="200.5" y="-41.4754"/>
      <point x="150.965" y="-41.4754" type="qcurve" smooth="yes"/>
      <point x="129.5" y="-41.4754"/>
      <point x="100.5" y="-65.4754"/>
    </contour>
  </outline>
</glyph>
<glyph name="Lcommaaccent" format="2">
  <advance width="276"/>
  <unicode hex="013B"/>
  <anchor x="83" y="700" name="top"/>
  <outline>
    <contour>
      <point x="40" y="0" type="line"/>
      <point x="271" y="0" type="line"/>
      <point x="271" y="69" type="line"/>
      <point x="126" y="69" type="line"/>
      <point x="126" y="700" type="line"/>
      <point x="40" y="700" type="line"/>
    </contour>
    <contour>
      <point x="88" y="-96.9927" type="qcurve" smooth="yes"/>
      <point x="88" y="-156.475"/>
      <point x="136" y="-156.475" type="qcurve"/>
      <point x="112" y="-241.475" type="line"/>
      <point x="146" y="-241.475" type="line"/>
      <point x="188" y="-163.075"/>
      <point x="188" y="-99.4754" type="qcurve" smooth="yes"/>
      <point x="188" y="-41.4754"/>
      <point x="138.465" y="-41.4754" type="qcurve" smooth="yes"/>
      <point x="117" y="-41.4754"/>
      <point x="88" y="-65.4754"/>
    </contour>
  </outline>
</glyph>
<glyph name="lcommaaccent" format="2">
  <advance width="186"/>
  <unicode hex="013C"/>
  <anchor x="73" y="750" name="top"/>
  <outline>
    <contour>
      <point x="30" y="750" type="line"/>
      <point x="30" y="130.817" type="line"/>
      <point x="30" y="56.9144"/>
      <point x="79" y="-8"/>
      <point x="156" y="-8" type="qcurve"/>
      <point x="156" y="71" type="line"/>
      <point x="130" y="69.0029"/>
      <point x="116" y="97.9603"/>
      <point x="116" y="142.894" type="qcurve"/>
      <point x="116" y="750" type="line"/>
    </contour>
    <contour>
      <point x="43" y="-96.9927" type="qcurve" smooth="yes"/>
      <point x="43" y="-156.475"/>
      <point x="91" y="-156.475" type="qcurve"/>
      <point x="67" y="-241.475" type="line"/>
      <point x="101" y="-241.475" type="line"/>
      <point x="143" y="-163.075"/>
      <point x="143" y="-104.192" type="qcurve" smooth="yes"/>
      <point x="143" y="-41.4754"/>
      <point x="93.4653" y="-41.4754" type="qcurve" smooth="yes"/>
      <point x="72" y="-41.4754"/>
      <point x="43" y="-65.4754"/>
    </contour>
  </outline>
</glyph>
<glyph name="lcaron" format="2">
  <advance width="313"/>
  <unicode hex="013E"/>
  <anchor x="73" y="750" name="top"/>
  <outline>
    <contour>
      <point x="30" y="750" type="line"/>
      <point x="30" y="130.817" type="line"/>
      <point x="30" y="56.9144"/>
      <point x="79" y="-8"/>
      <point x="156" y="-8" type="qcurve"/>
      <point x="156" y="71" type="line"/>
      <point x="130" y="69.0029"/>
      <point x="116" y="97.9603"/>
      <point x="116" y="142.894" type="qcurve"/>
      <point x="116" y="750" type="line"/>
    </contour>
    <contour>
      <point x="182.106" y="702.256" type="qcurve" smooth="yes"/>
      <point x="182.106" y="642.773"/>
      <point x="230.106" y="642.773" type="qcurve"/>
      <point x="206.106" y="557.773" type="line"/>
      <point x="240.106" y="557.773" type="line"/>
      <point x="282.106" y="636.173"/>
      <point x="282.106" y="695.056" type="qcurve" smooth="yes"/>
      <point x="282.106" y="757.773"/>
      <point x="232.572" y="757.773" type="qcurve" smooth="yes"/>
      <point x="211.106" y="757.773"/>
      <point x="182.106" y="733.773"/>
    </contour>
  </outline>
</glyph>
<glyph name="breve" format="2">
  <advance width="332"/>
  <unicode hex="02D8"/>
  <anchor x="166" y="700" name="_top"/>
  <outline>
    <contour>
      <point x="165.145" y="750" type="qcurve" smooth="yes"/>
      <point x="302" y="750"/>
      <point x="302" y="904" type="qcurve"/>
      <point x="216" y="904" type="line"/>
      <point x="216" y="819"/>
      <point x="165.145" y="819" type="qcurve" smooth="yes"/>
      <point x="116" y="819"/>
      <point x="116" y="904" type="qcurve"/>
      <point x="30" y="904" type="line"/>
      <point x="30" y="750"/>
    </contour>
  </outline>
</glyph>
<glyph name="ogonek" format="2">
  <advance width="150"/>
  <unicode hex="02DB"/>
  <anchor x="106" y="0" name="_ogonek"/>
  <outline>
    <contour>
      <point x="192" y="0" type="line"/>
      <point x="162.624" y="-42.0921" type="line"/>
      <point x="116" y="-108.898"/>
      <point x="116" y="-143.85" type="qcurve" smooth="yes"/>
      <point x="116" y="-190"/>
      <point x="188" y="-190" type="qcurve"/>
      <point x="188" y="-259" type="line"/>
      <point x="30" y="-259"/>
      <point x="30" y="-154.534" type="qcurve" smooth="yes"/>
      <point x="30" y="-98.6761"/>
      <point x="78.6291" y="-35.5375" type="qcurve"/>
      <point x="106" y="0" type="line"/>
    </contour>
  </outline>
</glyph>
<glyph name="tilde" format="2">
  <advance width="275"/>
  <unicode hex="02DC"/>
  <outline>
    <contour>
      <point x="69" y="750" type="line"/>
      <point x="69" y="790.663"/>
      <point x="91.6324" y="790.663" type="qcurve" smooth="yes"/>
      <point x="109.883" y="790.663"/>
      <point x="158.526" y="750"/>
      <point x="188.851" y="750" type="qcurve" smooth="yes"/>
      <point x="224.012" y="750"/>
      <point x="274.84" y="800.081"/>
      <point x="275" y="862.105" type="qcurve"/>
      <point x="206" y="862.105" type="line"/>
      <point x="206" y="819.337"/>
      <point x="182.245" y="819.337" type="qcurve" smooth="yes"/>
      <point x="163.684" y="819.337"/>
      <point x="112.092" y="860"/>
      <point x="81.9909" y="860" type="qcurve" smooth="yes"/>
      <point x="47.1567" y="860"/>
      <point x="0" y="810.341"/>
      <point x="0" y="750" type="qcurve"/>
    </contour>
  </outline>
</glyph>
<glyph name="quoteleft" format="2">
  <advance width="160"/>
  <unicode hex="2018"/>
  <anchor x="80" y="500" name="_top"/>
  <outline>
    <contour>
      <point x="130" y="575.517" type="qcurve" smooth="yes"/>
      <point x="130" y="635"/>
      <point x="82" y="635" type="qcurve"/>
      <point x="106" y="700" type="line"/>
      <point x="72" y="700" type="line"/>
      <point x="30" y="629.44"/>
      <point x="30" y="576.445" type="qcurve" smooth="yes"/>
      <point x="30" y="520"/>
      <point x="79.5347" y="520" type="qcurve" smooth="yes"/>
      <point x="101" y="520"/>
      <point x="130" y="544"/>
    </contour>
  </outline>
</glyph>
<glyph name="bullet" format="2">
  <advance width="169"/>
  <unicode hex="2022"/>
  <outline>
    <contour>
      <point x="30" y="339" type="qcurve" smooth="yes"/>
      <point x="30" y="243"/>
      <point x="84.5" y="243" type="qcurve" smooth="yes"/>
      <point x="139" y="243"/>
      <point x="139" y="339" type="qcurve" smooth="yes"/>
      <point x="139" y="435"/>
      <point x="84.5" y="435" type="qcurve" smooth="yes"/>
      <point x="30" y="435"/>
    </contour>
  </outline>
</glyph>
<glyph name="Euro" format="2">
  <advance width="359"/>
  <unicode hex="20AC"/>
  <anchor x="189.5" y="700" name="top"/>
  <outline>
    <contour>
      <point x="257.539" y="186.33" type="line"/>
      <point x="240.132" y="54"/>
      <point x="189.729" y="54" type="qcurve" smooth="yes"/>
      <point x="147" y="54"/>
      <point x="112" y="227"/>
      <point x="112" y="353" type="qcurve" smooth="yes"/>
      <point x="112" y="479"/>
      <point x="147" y="652"/>
      <point x="193.771" y="652" type="qcurve" smooth="yes"/>
      <point x="233" y="652"/>
      <point x="256.016" y="535.566"/>
      <point x="259.903" y="500" type="qcurve"/>
      <point x="348.315" y="500" type="line"/>
      <point x="347.69" y="565.895"/>
      <point x="274" y="721"/>
      <point x="195.826" y="721" type="qcurve" smooth="yes"/>
      <point x="106" y="721"/>
      <point x="20" y="514"/>
      <point x="20" y="353" type="qcurve" smooth="yes"/>
      <point x="20" y="192"/>
      <point x="106" y="-15"/>
      <point x="189.68" y="-15" type="qcurve" smooth="yes"/>
      <point x="274" y="-15"/>
      <point x="317.827" y="91.7311" type="qcurve" smooth="yes"/>
      <point x="334.475" y="132.274"/>
      <point x="344.847" y="186.33" type="qcurve"/>
    </contour>
    <contour>
      <point x="-25" y="394" type="line"/>
      <point x="234" y="394" type="line"/>
      <point x="234" y="480" type="line"/>
      <point x="-25" y="480" type="line"/>
    </contour>
    <contour>
      <point x="-25" y="222" type="line"/>
      <point x="234" y="222" type="line"/>
      <point x="234" y="308" type="line"/>
      <point x="-25" y="308" type="line"/>
    </contour>
  </outline>
</glyph>
<glyph name="fi" format="2">
  <advance width="378"/>
  <unicode hex="FB01"/>
  <anchor x="296" y="0" name="ced"/>
  <anchor x="294" y="0" name="ogonek"/>
  <outline>
    <contour>
      <point x="47" y="0" type="line"/>
      <point x="133" y="0" type="line"/>
      <point x="133" y="431" type="line"/>
      <point x="265" y="431" type="line"/>
      <point x="265" y="500" type="line"/>
      <point x="134" y="500" type="line"/>
      <point x="134" y="575"/>
      <point x="158.649" y="646"/>
      <point x="207" y="646" type="qcurve"/>
      <point x="207" y="715" type="line"/>
      <point x="115" y="715"/>
      <point x="48" y="630.303"/>
      <point x="48" y="554.453" type="qcurve" smooth="yes"/>
      <point x="48" y="500"/>
      <point x="0" y="500" type="qcurve"/>
      <point x="0" y="431" type="line"/>
      <point x="47" y="431" type="line"/>
    </contour>
    <contour>
      <point x="255" y="0" type="line"/>
      <point x="341" y="0" type="line"/>
      <point x="341" y="500" type="line"/>
      <point x="255" y="500" type="line"/>
    </contour>
    <contour>
      <point x="298" y="574" type="qcurve" smooth="yes"/>
      <point x="318.183" y="574"/>
      <point x="347.541" y="600"/>
      <point x="347.541" y="637" type="qcurve" smooth="yes"/>
      <point x="347.541" y="674"/>
      <point x="318.183" y="700"/>
      <point x="298" y="700" type="qcurve" smooth="yes"/>
      <point x="277.817" y="700"/>
      <point x="247.541" y="674"/>
      <point x="247.541" y="637" type="qcurve" smooth="yes"/>
      <point x="247.541" y="600"/>
      <point x="277.817" y="574"/>
    </contour>
  </outline>
</glyph>
<glyph name="f_f_i" format="2">
  <advance width="595"/>
  <unicode hex="FB03"/>
  <anchor x="513" y="0" name="ced"/>
  <anchor x="511" y="0" name="ogonek"/>
  <outline>
    <contour>
      <point x="47" y="0" type="line"/>
      <point x="133" y="0" type="line"/>
      <point x="133" y="431" type="line"/>
      <point x="225" y="431" type="line"/>
      <point x="225" y="500" type="line"/>
      <point x="134" y="500" type="line"/>
      <point x="134" y="575"/>
      <point x="158.649" y="646"/>
      <point x="207" y="646" type="qcurve"/>
      <point x="207" y="715" type="line"/>
      <point x="115" y="715"/>
      <point x="48" y="630.303"/>
      <point x="48" y="554.453" type="qcurve" smooth="yes"/>
      <point x="48" y="500"/>
      <point x="0" y="500" type="qcurve"/>
      <point x="0" y="431" type="line"/>
      <point x="47" y="431" type="line"/>
    </contour>
    <contour>
      <point x="264" y="0" type="line"/>
      <point x="350" y="0" type="line"/>
      <point x="350" y="431" type="line"/>
      <point x="482" y="431" type="line"/>
      <point x="482" y="500" type="line"/>
      <point x="351" y="500" type="line"/>
      <point x="351" y="575"/>
      <point x="375.649" y="646"/>
      <point x="424" y="646" type="qcurve"/>
      <point x="424" y="715" type="line"/>
      <point x="332" y="715"/>
      <point x="265" y="630.303"/>
      <point x="265" y="554.453" type="qcurve" smooth="yes"/>
      <point x="265" y="500"/>
      <point x="217" y="500" type="qcurve"/>
      <point x="217" y="431" type="line"/>
      <point x="264" y="431" type="line"/>
    </contour>
    <contour>
      <point x="472" y="0" type="line"/>
      <point x="558" y="0" type="line"/>
      <point x="558" y="500" type="line"/>
      <point x="472" y="500" type="line"/>
    </contour>
    <contour>
      <point x="515" y="574" type="qcurve" smooth="yes"/>
      <point x="535.183" y="574"/>
      <point x="564.541" y="600"/>
      <point x="564.541" y="637" type="qcurve" smooth="yes"/>
      <point x="564.541" y="674"/>
      <point x="535.183" y="700"/>
      <point x="515" y="700" type="qcurve" smooth="yes"/>
      <point x="494.817" y="700"/>
      <point x="464.541" y="674"/>
      <point x="464.541" y="637" type="qcurve" smooth="yes"/>
      <point x="464.541" y="600"/>
      <point x="494.817" y="574"/>
    </contour>
  </outline>
</glyph>
<glyph name="caroncomb.alt" format="2">
  <anchor x="-37" y="700.002" name="_top"/>
  <outline>
    <contour>
      <point x="72.1063" y="652.258" type="qcurve" smooth="yes"/>
      <point x="72.1063" y="592.775"/>
      <point x="120.106" y="592.775" type="qcurve"/>
      <point x="96.1063" y="507.775" type="line"/>
      <point x="130.106" y="507.775" type="line"/>
      <point x="172.106" y="586.175"/>
      <point x="172.106" y="645.058" type="qcurve" smooth="yes"/>
      <point x="172.106" y="707.775"/>
      <point x="122.572" y="707.775" type="qcurve" smooth="yes"/>
      <point x="101.106" y="707.775"/>
      <point x="72.1063" y="683.775"/>
    </contour>
  </outline>
  <guideline angle="0" x="0" y="1249"/>
</glyph>
